<svg xmlns="http://www.w3.org/2000/svg" viewBox="0 0 847.87 530.31"><defs><style>.cls-2{fill:#ffffde}.cls-3{fill:#ffeae1}.cls-4{fill:#3a3a3a}.cls-5{fill:#6683dd}.cls-6{fill:none;stroke:#000;stroke-linecap:round;stroke-linejoin:round;stroke-width:.71px}</style></defs><path id="Roof" fill="#a87" d="M238.87 379.33.35 238.43 403.37.35l444.14 262.37-320.77 189.49-205.62-121.46-82.25 48.58z"/><g id="Frames"><path d="M1354.53 613.32v53.44l1.37.81 90.47-53.44v-55.07Zm6.18 37.64.09-38.86 33.12-19.69.11 38.91Zm74-43.59-33.11 19.25v-38.56l33.24-19.46ZM736.6 534.94l-.3 54.89 131.46 77.66 1.51-.73v-53.44Zm34.83 61.88L748 583v-38.88l23.41 13.93Zm30.89 18.25-24.77-14.51.21-38.87 24.56 14.58Zm6.29 3.71.08-38.79 24.6 14.63.13 38.74Zm54.5 32.4-23.79-14h.13l.13-39 23.53 14Z" class="cls-2" transform="translate(-667.4 -255.85)"/><path d="M259.44 367.19v77.74l1.37.81 4-2.37.05-1.68.75-.41-.14-5.06.35-.2-.04-70.05 24.47-14.32-.11 70.2 4.25 2.49 2.06-1.08 1.37.61 4.11-2.43v-79.36l-42.49 25.11z" class="cls-2"/></g><g id="Walls"><path d="m370.47 427.92-8.22 4.86-41.13-24.29-19.19 11.24v-77.65l19.19-11.33 49.35 29.15v68.02zM259.44 444.93 238.99 457 33.25 335.6l.2-77.73 35.58 21.05-.14 55.07 131.6 77.79 1.37-.79v-53.52l37.22 21.74 20.36-12.02v77.74zM526.74 452.21l-41.12-24.29-.18 77.74 41.3 24.29L814.61 359.9v-77.74l-35.64 21.05v55.07l-90.47 53.44-1.37-.67v-53.58l-160.39 94.74z" class="cls-3"/></g><g id="Doors"><path d="m290.25 351.52-24.47 14.32.04 70.46 24.32-14.58.11-70.2zM485.31 427.74l.31 68.2-115.15-68.02V359.9l114.84 67.84z" class="cls-4"/></g><g id="Glass"><path d="M726.63 375.36 693.31 395l.08-38.86 33.12-19.69.12 38.91zM767.45 312.64l-.13 38.77-33.11 19.25v-38.55l33.24-19.47zM80.62 326.85v-38.83l23.41 13.93v38.77l-23.41-13.87zM110.14 344.46l.22-38.87 24.56 14.58v38.8l-24.78-14.51zM141.2 362.68l.09-38.79 24.6 14.63.13 38.74-24.82-14.58zM172.05 381l.12-38.97L195.71 356v39.08l-23.8-14.05" class="cls-5"/></g><g id="House"><path id="LINE" d="M201.86 410.91v-53.44" class="cls-6"/><path id="LINE-2" d="m110.36 344.71 24.68 14.58" class="cls-6" data-name="LINE"/><path id="LINE-3" d="m141.2 362.93 24.68 14.58" class="cls-6" data-name="LINE"/><path id="LINE-4" d="m80.55 327.1 23.64 13.97" class="cls-6" data-name="LINE"/><path id="LINE-5" d="M80.55 327.1v-38.87" class="cls-6" data-name="LINE"/><path id="LINE-6" d="m172.05 381.15 23.64 13.97" class="cls-6" data-name="LINE"/><path id="LINE-7" d="M110.36 344.71v-38.87" class="cls-6" data-name="LINE"/><path id="LINE-8" d="M141.2 362.93v-38.86" class="cls-6" data-name="LINE"/><path id="LINE-9" d="M172.05 381.15v-38.86" class="cls-6" data-name="LINE"/><path id="LINE-10" d="M259.44 444.93v-77.74" class="cls-6" data-name="LINE"/><path id="LINE-11" d="M726.63 375.43v-38.87" class="cls-6" data-name="LINE"/><path id="LINE-12" d="m693.3 395.12 33.33-19.69" class="cls-6" data-name="LINE"/><path id="LINE-13" d="M687.13 410.91v-53.44" class="cls-6" data-name="LINE"/><path id="LINE-14" d="m733.98 371.09 33.34-19.69" class="cls-6" data-name="LINE"/><path id="LINE-15" d="M68.89 278.92v55.06" class="cls-6" data-name="LINE"/><path id="LINE-16" d="m68.89 333.98 131.6 77.74" class="cls-6" data-name="LINE"/><path id="LINE-17" d="M200.49 411.72v-55.06" class="cls-6" data-name="LINE"/><path id="LINE-18" d="M196.38 404.44 73.01 331.56" class="cls-6" data-name="LINE"/><path id="LINE-19" d="M73.01 331.56v-48.59" class="cls-6" data-name="LINE"/><path id="LINE-20" d="m74.38 330.75-1.37.81" class="cls-6" data-name="LINE"/><path id="LINE-21" d="m201.86 410.91-1.37.81" class="cls-6" data-name="LINE"/><path id="LINE-22" d="M74.38 330.75v-46.97" class="cls-6" data-name="LINE"/><path id="LINE-23" d="m196.38 402.82-122-72.07" class="cls-6" data-name="LINE"/><path id="LINE-24" d="m76.43 329.53 27.76 16.4" class="cls-6" data-name="LINE"/><path id="LINE-25" d="M76.43 285.8v43.73" class="cls-6" data-name="LINE"/><path id="LINE-26" d="m76.43 329.53 4.12-2.43" class="cls-6" data-name="LINE"/><path id="LINE-27" d="m110.36 344.71-4.11 2.43" class="cls-6" data-name="LINE"/><path id="LINE-28" d="m106.25 347.14 28.79 17.01" class="cls-6" data-name="LINE"/><path id="LINE-29" d="m141.2 362.93-4.11 2.43" class="cls-6" data-name="LINE"/><path id="LINE-30" d="m137.09 365.36 28.79 17.01" class="cls-6" data-name="LINE"/><path id="LINE-31" d="m167.94 383.58 4.11-2.43" class="cls-6" data-name="LINE"/><path id="LINE-32" d="m167.94 383.58 27.75 16.4" class="cls-6" data-name="LINE"/><path id="LINE-33" d="M106.25 347.14v-43.72" class="cls-6" data-name="LINE"/><path id="LINE-34" d="M137.09 365.36v-43.72" class="cls-6" data-name="LINE"/><path id="LINE-35" d="M167.94 383.58v-43.72" class="cls-6" data-name="LINE"/><path id="LINE-36" d="M296.45 423.06v-76.12" class="cls-6" data-name="LINE"/><path id="LINE-37" d="m296.45 423.06 1.37.81" class="cls-6" data-name="LINE"/><path id="LINE-38" d="M297.82 423.87v-77.74" class="cls-6" data-name="LINE"/><path id="LINE-39" d="m260.81 445.73 4.11-2.42" class="cls-6" data-name="LINE"/><path id="LINE-40" d="m259.44 444.93 1.37.8" class="cls-6" data-name="LINE"/><path id="LINE-41" d="M260.81 366.38v79.35" class="cls-6" data-name="LINE"/><path id="LINE-42" d="m297.82 423.87 4.11-2.43" class="cls-6" data-name="LINE"/><path id="LINE-43" d="m692.61 404.44 82.25-48.59" class="cls-6" data-name="LINE"/><path id="LINE-44" d="m692.61 402.82 80.88-47.78" class="cls-6" data-name="LINE"/><path id="LINE-45" d="m773.49 355.04 1.37.81" class="cls-6" data-name="LINE"/><path id="LINE-46" d="M778.97 358.28v-55.07" class="cls-6" data-name="LINE"/><path id="LINE-47" d="M688.5 356.66v55.06" class="cls-6" data-name="LINE"/><path id="LINE-48" d="m688.5 411.72 90.47-53.44" class="cls-6" data-name="LINE"/><path id="LINE-49" d="M774.86 355.85v-48.59" class="cls-6" data-name="LINE"/><path id="LINE-50" d="m733.98 375.95 37.45-22.13" class="cls-6" data-name="LINE"/><path id="LINE-51" d="M771.43 353.82V310.1" class="cls-6" data-name="LINE"/><path id="LINE-52" d="m767.32 351.4 4.11 2.42" class="cls-6" data-name="LINE"/><path id="LINE-53" d="m730.74 377.86-4.11-2.43" class="cls-6" data-name="LINE"/><path id="LINE-54" d="m693.3 399.98 37.44-22.12" class="cls-6" data-name="LINE"/><path id="LINE-55" d="M773.49 355.04v-46.97" class="cls-6" data-name="LINE"/><path id="LINE-56" d="M730.74 377.86v-43.73" class="cls-6" data-name="LINE"/><path id="LINE-57" d="m687.13 410.91 1.37.81" class="cls-6" data-name="LINE"/><path id="LINE-58" d="M767.32 351.4v-38.87" class="cls-6" data-name="LINE"/><path id="LINE-59" d="M294.39 424.28v-75.31" class="cls-6" data-name="LINE"/><path id="LINE-60" d="m264.92 441.69.68-.41" class="cls-6" data-name="LINE"/><path id="LINE-61" d="m290.28 421.85 4.11 2.43" class="cls-6" data-name="LINE"/><path id="LINE-62" d="M290.28 421.85V351.4" class="cls-6" data-name="LINE"/><path id="LINE-63" d="m294.39 424.28 2.06-1.22" class="cls-6" data-name="LINE"/><path id="LINE-64" d="M526.74 184.38v267.83" class="cls-6" data-name="LINE"/><path id="LINE-65" d="m403.37 111.5 123.37 72.88" class="cls-6" data-name="LINE"/><path id="LINE-66" d="m403.37 111.5-82.25 20.09" class="cls-6" data-name="LINE"/><path id="LINE-67" d="M321.12 330.75V131.59" class="cls-6" data-name="LINE"/><path id="LINE-68" d="M847.51 262.72 403.37.35" class="cls-6" data-name="LINE"/><path id="LINE-69" d="M403.37 111.5V.35" class="cls-6" data-name="LINE"/><path id="LINE-70" d="m526.74 184.38 320.77 78.34" class="cls-6" data-name="LINE"/><path id="LINE-71" d="M238.87 180.17.35 238.43" class="cls-6" data-name="LINE"/><path id="LINE-72" d="m238.87 180.17 82.25-48.58" class="cls-6" data-name="LINE"/><path id="LINE-73" d="M238.87 180.17v199.16" class="cls-6" data-name="LINE"/><path id="LINE-74" d="M.35 238.43 403.37.35" class="cls-6" data-name="LINE"/><path id="LINE-75" d="m526.74 529.95-41.12-24.29" class="cls-6" data-name="LINE"/><path id="LINE-76" d="M238.87 457.07 33.25 335.6" class="cls-6" data-name="LINE"/><path id="LINE-77" d="m321.12 408.48-19.19 11.34" class="cls-6" data-name="LINE"/><path id="LINE-78" d="M814.61 359.9 526.74 529.95" class="cls-6" data-name="LINE"/><path id="LINE-79" d="M526.74 529.95v-77.74" class="cls-6" data-name="LINE"/><path id="LINE-80" d="M33.25 335.6v-77.73" class="cls-6" data-name="LINE"/><path id="LINE-81" d="M814.61 359.9v-77.74" class="cls-6" data-name="LINE"/><path id="LINE-82" d="M321.12 408.48v-77.73" class="cls-6" data-name="LINE"/><path id="LINE-83" d="M238.87 457.07v-77.74" class="cls-6" data-name="LINE"/><path id="LINE-84" d="m362.25 432.78-41.13-24.3" class="cls-6" data-name="LINE"/><path id="LINE-85" d="M362.25 355.04v77.74" class="cls-6" data-name="LINE"/><path id="LINE-86" d="m485.62 495.94-115.15-68.02" class="cls-6" data-name="LINE"/><path id="LINE-87" d="M370.47 359.9v68.02" class="cls-6" data-name="LINE"/><path id="LINE-88" d="m362.25 432.78 8.22-4.86" class="cls-6" data-name="LINE"/><path id="LINE-89" d="m290.28 421.85-24.68 14.57" class="cls-6" data-name="LINE"/><path id="LINE-90" d="m259.44 444.93-20.57 12.14" class="cls-6" data-name="LINE"/><path id="LINE-91" d="m73.01 282.97 1.37.81" class="cls-6" data-name="LINE"/><path id="LINE-92" d="m74.38 283.78 122 72.07" class="cls-6" data-name="LINE"/><path id="LINE-93" d="M196.38 355.85v46.97" class="cls-6" data-name="LINE"/><path id="LINE-94" d="M196.38 402.82v1.62" class="cls-6" data-name="LINE"/><path id="LINE-95" d="M195.69 399.98v-4.86" class="cls-6" data-name="LINE"/><path id="LINE-96" d="M195.69 395.12v-38.87" class="cls-6" data-name="LINE"/><path id="LINE-97" d="m195.69 356.25-23.64-13.96" class="cls-6" data-name="LINE"/><path id="LINE-98" d="m172.05 342.29-4.11-2.43" class="cls-6" data-name="LINE"/><path id="LINE-99" d="M104.19 345.93v-4.86" class="cls-6" data-name="LINE"/><path id="LINE-100" d="M104.19 341.07V302.2" class="cls-6" data-name="LINE"/><path id="LINE-101" d="m104.19 302.2-23.64-13.97" class="cls-6" data-name="LINE"/><path id="LINE-102" d="m80.55 288.23-4.12-2.43" class="cls-6" data-name="LINE"/><path id="LINE-103" d="M135.04 364.15v-4.86" class="cls-6" data-name="LINE"/><path id="LINE-104" d="M135.04 359.29v-38.87" class="cls-6" data-name="LINE"/><path id="LINE-105" d="m135.04 320.42-24.68-14.58" class="cls-6" data-name="LINE"/><path id="LINE-106" d="m110.36 305.84-4.11-2.42" class="cls-6" data-name="LINE"/><path id="LINE-107" d="M165.88 382.37v-4.86" class="cls-6" data-name="LINE"/><path id="LINE-108" d="M165.88 377.51v-38.87" class="cls-6" data-name="LINE"/><path id="LINE-109" d="m165.88 338.64-24.68-14.57" class="cls-6" data-name="LINE"/><path id="LINE-110" d="m141.2 324.07-4.11-2.43" class="cls-6" data-name="LINE"/><path id="LINE-111" d="M264.92 365.57v76.12" class="cls-6" data-name="LINE"/><path id="LINE-112" d="M264.92 441.69v1.62" class="cls-6" data-name="LINE"/><path id="LINE-113" d="M301.93 421.44v-1.62" class="cls-6" data-name="LINE"/><path id="LINE-114" d="M301.93 419.82v-77.74" class="cls-6" data-name="LINE"/><path id="LINE-115" d="m297.82 346.13-1.37.81" class="cls-6" data-name="LINE"/><path id="LINE-116" d="m296.45 346.94-31.53 18.63" class="cls-6" data-name="LINE"/><path id="LINE-117" d="M692.61 355.85v46.97" class="cls-6" data-name="LINE"/><path id="LINE-118" d="M692.61 402.82v1.62" class="cls-6" data-name="LINE"/><path id="LINE-119" d="m774.86 307.26-1.37.81" class="cls-6" data-name="LINE"/><path id="LINE-120" d="m773.49 308.07-80.88 47.78" class="cls-6" data-name="LINE"/><path id="LINE-121" d="m771.43 310.1-4.11 2.43" class="cls-6" data-name="LINE"/><path id="LINE-122" d="m767.32 312.53-33.34 19.69" class="cls-6" data-name="LINE"/><path id="LINE-123" d="M693.3 356.25v38.87" class="cls-6" data-name="LINE"/><path id="LINE-124" d="M693.3 395.12v4.86" class="cls-6" data-name="LINE"/><path id="LINE-125" d="m730.74 334.13-4.11 2.43" class="cls-6" data-name="LINE"/><path id="LINE-126" d="m726.63 336.56-33.33 19.69" class="cls-6" data-name="LINE"/><path id="LINE-127" d="M733.98 375.95v-4.86" class="cls-6" data-name="LINE"/><path id="LINE-128" d="M733.98 371.09v-38.87" class="cls-6" data-name="LINE"/><path id="LINE-129" d="M265.6 365.97v70.45" class="cls-6" data-name="LINE"/><path id="LINE-130" d="M265.6 436.42v4.86" class="cls-6" data-name="LINE"/><path id="LINE-131" d="m294.39 348.97-4.11 2.43" class="cls-6" data-name="LINE"/><path id="LINE-132" d="m290.28 351.4-24.68 14.57" class="cls-6" data-name="LINE"/><path id="LINE-133" d="m485.62 427.92 41.12 24.29" class="cls-6" data-name="LINE"/><path id="LINE-134" d="m526.74 452.21 160.39-94.74" class="cls-6" data-name="LINE"/><path id="LINE-135" d="m259.44 367.19-20.57 12.14" class="cls-6" data-name="LINE"/><path id="LINE-136" d="M485.62 505.66v-9.72" class="cls-6" data-name="LINE"/><path id="LINE-137" d="M485.62 495.94v-68.02" class="cls-6" data-name="LINE"/><path id="LINE-138" d="m370.47 359.9 115.15 68.02" class="cls-6" data-name="LINE"/><path id="LINE-139" d="m687.13 357.47 1.37-.81" class="cls-6" data-name="LINE"/><path id="LINE-140" d="m260.81 366.38-1.37.81" class="cls-6" data-name="LINE"/><path id="LINE-141" d="m.35 238.43 32.9 19.44" class="cls-6" data-name="LINE"/><path id="LINE-142" d="m33.25 257.87 35.64 21.05" class="cls-6" data-name="LINE"/><path id="LINE-143" d="m68.89 278.92 131.6 77.74" class="cls-6" data-name="LINE"/><path id="LINE-144" d="m321.12 330.75 41.13 24.29" class="cls-6" data-name="LINE"/><path id="LINE-145" d="m362.25 355.04 8.22 4.86" class="cls-6" data-name="LINE"/><path id="LINE-146" d="m688.5 356.66 90.47-53.45" class="cls-6" data-name="LINE"/><path id="LINE-147" d="m321.12 330.75-19.19 11.33" class="cls-6" data-name="LINE"/><path id="LINE-148" d="m301.93 342.08-41.12 24.3" class="cls-6" data-name="LINE"/><path id="LINE-149" d="m200.49 356.66 1.37.81" class="cls-6" data-name="LINE"/><path id="LINE-150" d="m201.86 357.47 37.01 21.86" class="cls-6" data-name="LINE"/><path id="LINE-151" d="m778.97 303.21 35.64-21.05" class="cls-6" data-name="LINE"/><path id="LINE-152" d="m814.61 282.16 32.9-19.44" class="cls-6" data-name="LINE"/></g></svg>