<svg xmlns="http://www.w3.org/2000/svg" viewBox="0 0 1783.21 1091" width="1783.21" height="1091"><path fill="#deeada" d="M1022.94 1005.85v-4.18l-846.5-510.36L878.35 37.05l846.51 510.36v4.54l-701.92 453.9"/><g fill="#bababa"><path d="M907.81 1080.35 61.31 570l66.85-43.27v-4.17l48.28-31.25 615.64 371.17 230.86 139.19v4.18l-115.13 74.5z"/><path d="m940.63 766.34 115.43 69.6-148.55 96.14-115.43-69.6"/></g><path fill="#fff" d="m1056.06 835.94-615.6-371.2 408.48-264.36 615.58 371.22-408.46 264.34z"/><path stroke="#000" d="M128.15 526.73 743.8 897.9"/><path stroke="#000" d="m743.8 897.9 3.71-2.4M747.51 895.5l115.43 69.59M859.23 967.5l38.48 23.2M859.23 967.5l3.71-2.41M897.71 990.7l76.95 46.39M974.66 1037.09l3.72-2.4M978.38 1034.69l44.56-28.84M61.31 569.99l66.84-43.26M907.81 1080.35 61.31 569.99M131.87 520.15l-3.72 2.41M978.38 1030.51l-76.96-46.39M128.15 522.56l577.17 347.97M974.66 1032.92l3.72-2.41M128.15 526.73v-4.17M974.66 1037.09v-4.17M978.38 1034.69v-4.18M897.71 986.52l76.95 46.4M901.42 984.12l-3.71 2.4M709.03 868.13 131.87 520.15M709.03 868.13l-3.71 2.4M897.71 986.52v4.18M743.8 897.9l115.43 69.6M747.51 895.5l-38.48-27.37M743.8 897.9l-38.48-27.37M862.94 965.09l38.48 19.03M897.71 986.52l-38.48-19.02M1022.94 1005.85v-4.18M1724.86 551.59v-4.18M1020.26 907.2l482.8-312.45M366.14 512.84l654.12 394.36M1724.86 547.41 878.35 37.06M878.35 37.06 176.43 491.31M1022.94 1001.67l701.92-454.26M848.94 200.39l654.12 394.36M747.51 895.5l44.57-33.02M907.51 932.08l-115.43-69.6M862.94 965.09l44.57-33.01M1022.94 1001.67l-44.56 28.84M131.87 520.15l44.56-28.84M709.03 868.13l83.05-5.65M901.42 984.12l6.09-52.04M974.66 1037.09l-66.85 43.26M1022.94 1005.85l701.92-454.26M848.94 200.39l-482.8 312.45M792.08 862.48 176.43 491.31M907.51 932.08l115.43 69.59M622.1 202.89l846.5 510.36M696.37 154.83l846.51 510.35M733.51 130.79l846.51 510.36M287.85 419.21l846.51 510.36M362.13 371.14l846.5 510.36M324.99 395.17l846.51 510.36M770.65 106.76l846.51 510.36M213.57 467.28l846.51 510.36M547.82 250.96l846.51 510.36M807.79 82.72l846.5 510.36M510.68 275l846.51 510.36M436.4 323.07l846.51 510.36M844.93 58.69l846.5 510.36M659.23 178.86l846.51 510.36M399.26 347.1l846.51 510.36M176.43 491.31l846.51 510.36M473.54 299.03l846.51 510.36M250.71 443.24l846.51 510.36M584.96 226.93l846.5 510.36M945.99 955.27l701.91-454.25M599.69 746.49l701.91-454.25M869.03 908.88l701.92-454.26M561.21 723.29l701.92-454.25M830.55 885.68l701.92-454.26M715.12 816.09l701.92-454.26M907.51 932.08l701.91-454.26M638.17 769.69l701.91-454.26M984.46 978.47l701.92-454.25M676.64 792.89l701.92-454.26M792.08 862.48l701.91-454.25M753.6 839.28l701.91-454.25M522.73 700.09l701.92-454.25M484.26 676.9l701.91-454.26M214.91 514.51 916.83 60.25M368.82 607.3l701.92-454.25M291.87 560.91l701.91-454.26M176.43 491.31 878.35 37.06M407.3 630.5l701.92-454.26M330.35 584.1l701.91-454.25M253.39 537.71 955.31 83.45M445.78 653.7l701.91-454.26" data-name="LINE"/><path stroke="#3f3f3f" d="m874.09 38.66-28.41-17.12M172.17 492.92l-28.4-17.13M849.72 16.26l.23 7.85M849.95 24.11l.22 7.85M849.95 24.11l6.17-4M148.25 486.21l-.22-7.85M148.03 478.36l-.22-7.85M148.03 478.36l-6.17 4M849.95 24.11 525.15 234.3M472.82 268.17 148.03 478.36M57.04 567.42l-28.4-17.12M172.17 492.92l-28.4-17.13M33.12 560.72l-.22-7.85M32.9 552.87l-.22-7.85M32.9 552.87l-6.17 4M147.81 470.51l.22 7.85M148.03 478.36l.22 7.85M148.03 478.36l6.17-3.99M32.9 552.87l31.4-20.32M116.63 498.68l31.4-20.32M57.04 567.42 2.26 534.4M874.09 38.66 819.31 5.64M6.75 544.82l-.22-7.85M6.53 536.97l-.22-7.85M6.53 536.97l-6.18 3.99M823.35.35l.22 7.86M823.57 8.21l.22 7.85M823.57 8.21l6.18-4M6.53 536.97 390.92 288.2M439.18 256.97 823.57 8.21M882.47 34.39l45.43-29.4M1728.97 544.75l45.43-29.4M911.21 7.79l12.57-.14M923.78 7.65l12.57-.13M923.78 7.65l-6.4-3.85M1782.86 517.87l-12.57.14M1770.29 518.01l-12.57.14M1770.29 518.01l6.39 3.86M923.78 7.65l399.13 240.64M1371.16 277.38l399.13 240.63" data-name="LINE"/><g><text fill="#3f3f3f" transform="translate(468.08 260.27)">94&apos; 6&quot;</text><text fill="#3f3f3f" data-name="MTEXT" transform="translate(57.55 524.66)">15&apos; 6&quot;</text><text fill="#3f3f3f" data-name="MTEXT" transform="translate(390.6 281.63)">110&apos;</text><text fill="#3f3f3f" data-name="MTEXT" transform="translate(1322.58 271.87)">110&apos;</text></g></svg>
